<svg xmlns="http://www.w3.org/2000/svg" xmlns:xlink="http://www.w3.org/1999/xlink" viewBox="0 0 458.27 170.53"><defs><style>.cls-1{fill:#f0f0f0;}.cls-2{fill:url(#Nueva_muestra_de_degradado_1);}</style><linearGradient id="Nueva_muestra_de_degradado_1" x1="201.4" y1="836.94" x2="239.04" y2="1022.45" gradientTransform="translate(0 -846)" gradientUnits="userSpaceOnUse"><stop offset="0" stop-color="#807555"/><stop offset="0.4" stop-color="#eae6c0"/><stop offset="0.53" stop-color="#c2b483"/><stop offset="0.64" stop-color="#b9a97b"/></linearGradient></defs><title>teamz-blockchain-summit-white</title><g id="Capa_2" data-name="Capa 2"><g id="Capa_1-2" data-name="Capa 1"><path class="cls-1" d="M260.66,40.65V59.08h-6.21V40.65h-5V35.47h16.15v5.18Z"/><path class="cls-1" d="M281.79,40.65h-7.25v3.93h6.83v5.18h-6.83V53.9h7.25v5.18H268.32V35.26h13.47Z"/><path class="cls-1" d="M300,54.94h-8.5l-1.65,3.93h-6.42l9.11-23.61h6.63l8.9,23.61h-6.62Zm-1.66-4.56-2.69-7.66-2.49,7.66Z"/><path class="cls-1" d="M309.75,58.87l3.94-23.61h6l4.77,12.63,5-12.63h6.21l3.52,23.61H333l-1.66-13.46-5.8,13.46H323l-5.39-13.46-2.07,13.46Z"/><path class="cls-1" d="M351.38,53.69h9.74v5.18h-20.3L352,40.44h-9.32V35.26h19.47Z"/><path class="cls-1" d="M253.2,122.88a8.73,8.73,0,0,0,5.39,2.48,3.12,3.12,0,0,0,2.28-.83,2.24,2.24,0,0,0,.62-1.45,1.9,1.9,0,0,0-.62-1.45,7.1,7.1,0,0,0-3.11-1.24l-1.45-.62A8.72,8.72,0,0,1,253,117.9a5.23,5.23,0,0,1-1.25-4.14,7.8,7.8,0,0,1,2.08-5.8,9,9,0,0,1,6-2.28,15.14,15.14,0,0,1,7.25,1.87l-2.48,4.76a5.71,5.71,0,0,0-3.94-1.66,3.46,3.46,0,0,0-2.07.63,1.78,1.78,0,0,0-.62,1.24c0,.41,0,.83.21,1a3.9,3.9,0,0,0,2.07,1l1.86.62a10.94,10.94,0,0,1,4.35,2.28,5.12,5.12,0,0,1,1.45,4.14,7.94,7.94,0,0,1-2.07,6,9.49,9.49,0,0,1-7,2.48,11.17,11.17,0,0,1-4.56-.82,11.58,11.58,0,0,1-3.52-1.87Z"/><path class="cls-1" d="M278.06,106.31v13.87a4.36,4.36,0,0,0,1.24,3.73,7.22,7.22,0,0,0,2.9,1.24,5,5,0,0,0,2.9-1,5.33,5.33,0,0,0,1.45-4.35V106.31h6.22v13.46a9.55,9.55,0,0,1-2.7,7.66,12.13,12.13,0,0,1-15.74,0,10.41,10.41,0,0,1-2.48-7.66V106.31Z"/><path class="cls-1" d="M296.29,129.92l3.93-23.61h6L311,118.94l5-12.63h6.22l3.73,23.61h-6.22L318,116.45l-5.8,13.47H310l-5.39-13.47-2.07,13.47Z"/><path class="cls-1" d="M328.6,129.92l3.93-23.61h6l4.77,12.63,5-12.63h6.21L358,129.92H351.8l-1.66-13.47-5.59,13.47h-2.49l-5.38-13.47-2.07,13.47Z"/><path class="cls-1" d="M368.16,106.31v23.61H362V106.31Z"/><path class="cls-1" d="M381.83,111.48v18.44h-6.21V111.48h-5v-5.17H386.8v5.17Z"/><rect class="cls-2" x="215.61" width="9.86" height="170.53"/><path class="cls-1" d="M191.14,95.92v2.5H159.42L187,56.27H162.34v-2.5H192L164.43,95.92Z"/><rect class="cls-1" x="30.88" y="55.02" width="25.87" height="2.5"/><rect class="cls-1" x="30.88" y="75.89" width="25.87" height="2.5"/><rect class="cls-1" x="30.88" y="97.17" width="25.87" height="2.5"/><path class="cls-1" d="M14.61,99.67H11.69V57.52H0V55H25.87v2.5H14.61Z"/><polygon class="cls-1" points="79.29 53.35 60.51 99.67 63.44 99.67 79.29 60.44 95.15 99.67 98.07 99.67 79.29 53.35"/><path class="cls-1" d="M142.31,62.53h0l-15.86,38.4-15.86-38.4h0L103.5,99.67h-2.92l9.6-46.32,16.69,40.9,16.69-40.9,9.19,46.32h-2.93Z"/><path class="cls-1" d="M113.15,106h8v.88h-3.49V117h-1V106.84h-3.49Z"/><path class="cls-1" d="M126.15,112.35l.62-.09a2.33,2.33,0,0,0,.59-.17.47.47,0,0,0,.28-.36,2,2,0,0,0,.06-.47,1.57,1.57,0,0,0-.45-1.15,2.12,2.12,0,0,0-1.53-.45,4.77,4.77,0,0,0-.87.08,2.14,2.14,0,0,0-.69.29,1.73,1.73,0,0,0-.49.55,2.29,2.29,0,0,0-.25.87h-.94a2.86,2.86,0,0,1,.32-1.2,2.45,2.45,0,0,1,.72-.81,3,3,0,0,1,1-.46,4.85,4.85,0,0,1,1.22-.15,5,5,0,0,1,1.12.13,2.59,2.59,0,0,1,.92.42,1.81,1.81,0,0,1,.61.75,2.73,2.73,0,0,1,.22,1.16v4.32a.86.86,0,0,0,.2.68c.12.1.38.07.77-.07v.72l-.32.09a1.39,1.39,0,0,1-.4.06,1.84,1.84,0,0,1-.41,0,.74.74,0,0,1-.37-.15.85.85,0,0,1-.22-.28,1,1,0,0,1-.12-.35,2.5,2.5,0,0,1,0-.4,3.84,3.84,0,0,1-2.95,1.31,3.66,3.66,0,0,1-1-.13,2.72,2.72,0,0,1-.85-.43,2.21,2.21,0,0,1-.58-.71,2.25,2.25,0,0,1-.21-1c0-1.34.92-2.14,2.76-2.38Zm1.55.46a4.6,4.6,0,0,1-1.18.32l-1.19.12a3.33,3.33,0,0,0-1.65.48,1.35,1.35,0,0,0-.59,1.21,1.28,1.28,0,0,0,.15.63,1.25,1.25,0,0,0,.38.44,1.47,1.47,0,0,0,.55.26,2.3,2.3,0,0,0,.64.09,4.3,4.3,0,0,0,1.07-.14,2.86,2.86,0,0,0,.92-.42,2.14,2.14,0,0,0,.65-.72,2,2,0,0,0,.25-1Z"/><path class="cls-1" d="M131,117V106h.91v6.85l3.89-3.76H137l-3,2.86,3.32,5.06h-1l-3-4.42-1.5,1.42v3Z"/><path class="cls-1" d="M139.23,113.22a4.39,4.39,0,0,0,.17,1.22,3.06,3.06,0,0,0,.49,1,2.31,2.31,0,0,0,.84.67,2.73,2.73,0,0,0,2.71-.22,2.27,2.27,0,0,0,.85-1.34h1a5.1,5.1,0,0,1-.45,1,3,3,0,0,1-.69.85,2.88,2.88,0,0,1-1,.55,4.4,4.4,0,0,1-3-.12,3.06,3.06,0,0,1-1.13-.88,3.94,3.94,0,0,1-.66-1.31,6.12,6.12,0,0,1-.21-1.63,5.17,5.17,0,0,1,.25-1.64,4.31,4.31,0,0,1,.72-1.34,3.35,3.35,0,0,1,1.14-.9,3.44,3.44,0,0,1,1.53-.33,3.16,3.16,0,0,1,2.57,1.13,5,5,0,0,1,.92,3.26Zm5.17-.76a3.61,3.61,0,0,0-.16-1.1,2.58,2.58,0,0,0-.48-.88,2.33,2.33,0,0,0-.78-.6,2.53,2.53,0,0,0-1.09-.22,2.45,2.45,0,0,0-1.08.23,2.5,2.5,0,0,0-.79.61,3,3,0,0,0-.53.89,4.09,4.09,0,0,0-.26,1.07Z"/><path class="cls-1" d="M155.06,112.35l.62-.09a2.24,2.24,0,0,0,.58-.17.49.49,0,0,0,.29-.36,2.69,2.69,0,0,0,0-.47,1.57,1.57,0,0,0-.45-1.15,2.11,2.11,0,0,0-1.52-.45,4.6,4.6,0,0,0-.87.08,2.11,2.11,0,0,0-.7.29,1.73,1.73,0,0,0-.49.55,2.29,2.29,0,0,0-.25.87h-.93a2.72,2.72,0,0,1,.32-1.2,2.42,2.42,0,0,1,.71-.81,3,3,0,0,1,1-.46,4.78,4.78,0,0,1,1.21-.15,5.07,5.07,0,0,1,1.13.13,2.68,2.68,0,0,1,.92.42,1.89,1.89,0,0,1,.61.75,2.89,2.89,0,0,1,.22,1.16v4.32c0,.35.06.58.19.68s.38.07.77-.07v.72l-.31.09a1.45,1.45,0,0,1-.41.06,1.84,1.84,0,0,1-.41,0,.83.83,0,0,1-.37-.15,1,1,0,0,1-.22-.28,1.2,1.2,0,0,1-.11-.35,2.5,2.5,0,0,1,0-.4,4.06,4.06,0,0,1-1.33,1,4,4,0,0,1-1.62.33,3.73,3.73,0,0,1-1-.13,2.72,2.72,0,0,1-.85-.43,2.35,2.35,0,0,1-.58-.71,2.25,2.25,0,0,1-.21-1c0-1.34.92-2.14,2.77-2.38Zm1.54.46a4.6,4.6,0,0,1-1.18.32c-.39.05-.79.09-1.19.12a3.29,3.29,0,0,0-1.64.48,1.33,1.33,0,0,0-.59,1.21,1.39,1.39,0,0,0,.14.63,1.28,1.28,0,0,0,.39.44,1.4,1.4,0,0,0,.55.26,2.28,2.28,0,0,0,.63.09,4.24,4.24,0,0,0,1.07-.14,2.82,2.82,0,0,0,.93-.42,2.25,2.25,0,0,0,.65-.72,2.09,2.09,0,0,0,.24-1Z"/><path class="cls-1" d="M165.53,111.54a2.62,2.62,0,0,0-.84-1.38,2.24,2.24,0,0,0-1.51-.5,2.34,2.34,0,0,0-2,1.06,3.56,3.56,0,0,0-.47,1.09,5,5,0,0,0-.15,1.21,5.59,5.59,0,0,0,.14,1.23,3.32,3.32,0,0,0,.47,1.07,2.36,2.36,0,0,0,.82.75,2.49,2.49,0,0,0,1.23.29,2.32,2.32,0,0,0,1.64-.57,2.65,2.65,0,0,0,.79-1.56h1a4.45,4.45,0,0,1-.39,1.2,3.22,3.22,0,0,1-.69.93,2.89,2.89,0,0,1-1,.61,3.91,3.91,0,0,1-1.33.21,3.78,3.78,0,0,1-1.64-.32,3,3,0,0,1-1.13-.88,3.72,3.72,0,0,1-.66-1.32,6.19,6.19,0,0,1-.21-1.64,5.54,5.54,0,0,1,.23-1.58,4.38,4.38,0,0,1,.7-1.34,3.53,3.53,0,0,1,1.14-.92,3.43,3.43,0,0,1,1.57-.35,3.49,3.49,0,0,1,2.22.66,3.07,3.07,0,0,1,1.07,2.05Z"/><path class="cls-1" d="M171.21,117l-.45.11a2.27,2.27,0,0,1-.61.07,1.46,1.46,0,0,1-1.05-.34,1.67,1.67,0,0,1-.36-1.23v-5.8h-1.11v-.76h1.11v-2.21h.92v2.21h1.49v.76h-1.49v5.43c0,.19,0,.36,0,.51a.85.85,0,0,0,.09.35.44.44,0,0,0,.24.2,1.28,1.28,0,0,0,.45.06l.37,0,.38-.08Z"/><path class="cls-1" d="M172.77,107.32V106h1v1.36Zm0,9.65v-7.92h.92V117Z"/><path class="cls-1" d="M179.22,117.18a4.18,4.18,0,0,1-1.43-.27,3.39,3.39,0,0,1-1.16-.78,3.74,3.74,0,0,1-.79-1.3,5.3,5.3,0,0,1-.29-1.82,5.68,5.68,0,0,1,.23-1.63,3.62,3.62,0,0,1,.69-1.32,3.26,3.26,0,0,1,1.14-.9,4.12,4.12,0,0,1,3.23,0,3.39,3.39,0,0,1,1.15.89,3.76,3.76,0,0,1,.68,1.32,5.8,5.8,0,0,1,.22,1.64,5.38,5.38,0,0,1-.26,1.71,3.87,3.87,0,0,1-.74,1.32,3.24,3.24,0,0,1-1.16.84A3.73,3.73,0,0,1,179.22,117.18Zm2.69-4.17a5.56,5.56,0,0,0-.15-1.32,3.2,3.2,0,0,0-.47-1.06,2.28,2.28,0,0,0-.83-.71,2.74,2.74,0,0,0-1.24-.26,2.49,2.49,0,0,0-1.23.28,2.4,2.4,0,0,0-.83.75,3.16,3.16,0,0,0-.48,1.07,5.16,5.16,0,0,0-.15,1.25,4.79,4.79,0,0,0,.18,1.35,2.91,2.91,0,0,0,.51,1.06,2.17,2.17,0,0,0,.84.69,2.78,2.78,0,0,0,2.39,0,2.42,2.42,0,0,0,.84-.75,3.56,3.56,0,0,0,.47-1.07A5.07,5.07,0,0,0,181.91,113Z"/><path class="cls-1" d="M185.49,117h-.92v-7.92h.92v1.1a6.11,6.11,0,0,1,1.14-1,2.64,2.64,0,0,1,1.41-.37,3.63,3.63,0,0,1,1.37.26,2.31,2.31,0,0,1,1.05.88,1.89,1.89,0,0,1,.34.87,7.3,7.3,0,0,1,.06.94V117h-.92V111.8a2.42,2.42,0,0,0-.47-1.61,2,2,0,0,0-1.58-.53,2.2,2.2,0,0,0-.78.13,2.53,2.53,0,0,0-.63.34,2.47,2.47,0,0,0-.48.49,2.18,2.18,0,0,0-.31.58,3,3,0,0,0-.17.74c0,.23,0,.49,0,.76Z"/><path class="cls-1" d="M251.83,93.48V70.93h8.72a6.33,6.33,0,0,1,4.93,1.76,6.1,6.1,0,0,1,1.39,4.23,5.78,5.78,0,0,1-.65,2.77,3.58,3.58,0,0,1-1.82,1.76,5.53,5.53,0,0,1,3.07,1.35A5.64,5.64,0,0,1,269,86.92a6.15,6.15,0,0,1-1.65,4.43,8.49,8.49,0,0,1-6.12,2.13Zm5.84-13.66h1.08a3,3,0,0,0,2.23-.71,2.14,2.14,0,0,0,.55-1.48,2.3,2.3,0,0,0-.55-1.52,3.06,3.06,0,0,0-2.23-.68h-1.08Zm0,9.1H259c1.62,0,3-.17,3.62-.92a2.18,2.18,0,0,0,.47-1.45,2.32,2.32,0,0,0-.57-1.62c-.71-.71-2.17-.75-3.62-.75h-1.22Z"/><path class="cls-1" d="M278.56,70.93V88.51h7v5H272.71V70.93Z"/><path class="cls-1" d="M307.66,90.64a13.47,13.47,0,0,1-17.78,0,11.82,11.82,0,0,1,0-16.87,13.5,13.5,0,0,1,17.78,0,11.8,11.8,0,0,1,0,16.87ZM294.21,77.9a6.16,6.16,0,0,0-1.79,4.43,5.77,5.77,0,0,0,1.79,4.19,6.42,6.42,0,0,0,4.56,1.79,6.14,6.14,0,0,0,6.36-6.09,6.07,6.07,0,0,0-1.83-4.32,6.7,6.7,0,0,0-4.53-1.79A6.48,6.48,0,0,0,294.21,77.9Z"/><path class="cls-1" d="M331.12,92.87A14.06,14.06,0,0,1,326.05,94a12.29,12.29,0,0,1-8.72-3.38,11.83,11.83,0,0,1-3.41-8.22,11.83,11.83,0,0,1,11.93-11.83,14,14,0,0,1,5.27,1.15v7a6.28,6.28,0,0,0-5.1-2.47A5.72,5.72,0,0,0,322,77.73,6,6,0,0,0,326,88.31a6.61,6.61,0,0,0,5.1-2.37Z"/><path class="cls-1" d="M340.68,80.23l7.17-9.3h7.23l-8.95,10.69,9.76,11.86h-7.57l-7.64-9.77v9.77h-5.84V70.93h5.84Z"/><path class="cls-1" d="M372.59,92.87A14,14,0,0,1,367.52,94a12.29,12.29,0,0,1-8.72-3.38,11.88,11.88,0,0,1-3.41-8.22,11.83,11.83,0,0,1,11.93-11.83,14,14,0,0,1,5.27,1.15v7a6.28,6.28,0,0,0-5.1-2.47,5.72,5.72,0,0,0-4.06,1.49,6.31,6.31,0,0,0-2,4.63,6.23,6.23,0,0,0,1.83,4.39,6.3,6.3,0,0,0,4.19,1.56,6.6,6.6,0,0,0,5.1-2.37Z"/><path class="cls-1" d="M382.16,79.35h8.45V70.93h5.88V93.48h-5.88V84.35h-8.45v9.13h-5.85V70.93h5.85Z"/><path class="cls-1" d="M415,89.69H406.8l-1.52,3.79h-6.19l8.65-22.55h6.39l8.49,22.55h-6.26Zm-1.56-4.46-2.53-7.3-2.47,7.3Z"/><path class="cls-1" d="M431.07,70.93V93.48h-5.85V70.93Z"/><path class="cls-1" d="M435.8,93.48V70.93h5.85l10.78,13.79V70.93h5.84V93.48h-5.84L441.65,79.69V93.48Z"/></g></g></svg>